<svg width="52" height="40" viewBox="0 0 52 40" fill="none" xmlns="http://www.w3.org/2000/svg">
<path d="M41.9399 1.87823C40.6855 10.3466 37.3246 18.3239 32.1929 25.013C27.0609 31.7023 20.3366 36.8697 12.6929 39.9993L10.3364 33.7308C16.9295 31.0313 22.7292 26.5738 27.1558 20.804C31.5822 15.0343 34.482 8.15342 35.564 0.848938L41.9399 1.87823Z" fill="#6F4EF3" fill-opacity="0.5"/>
<path d="M38.5359 21.9236C39.6028 24.3059 42.1149 27.5365 44.1052 29.1491C46.0955 30.7616 48.8032 32.1083 51.2791 32.5964L50.1423 38.8767C46.7125 38.2004 43.0997 36.049 40.3425 33.8152C37.5852 31.5812 35.9495 29.5891 34.4714 26.2888L38.5359 21.9236Z" fill="#6F4EF3" fill-opacity="0.25"/>
<path d="M20.5362 4.71967C22.2679 5.19306 23.9003 6.00584 25.3395 7.11075C26.7787 8.21561 27.9058 9.0521 28.8334 10.6203L25.823 14.9855C25.2664 14.0446 23.0034 12.1318 22.1396 11.4685C21.276 10.8056 20.2958 10.318 19.2567 10.0339C18.2178 9.75004 17.1392 9.67494 16.083 9.81308C15.0269 9.95127 14.0132 10.2993 13.1005 10.8385C12.1877 11.3778 11.3931 12.0977 10.7628 12.9561C10.1326 13.8143 9.67862 14.7948 9.42674 15.8413C9.17487 16.888 9.12995 17.9814 9.29487 19.0571C9.45982 20.1327 9.83133 21.1708 10.3879 22.1117L8.50635 24.8489L6.3786 27.5465C5.45092 25.9776 4.20734 21.5507 3.93249 19.758C3.65764 17.9651 3.73192 16.1444 4.1517 14.3998C4.57149 12.6553 5.32854 11.021 6.37909 9.59039C7.4296 8.15984 8.72778 6.93479 10.2491 6.03593C11.7704 5.13707 13.4855 4.58158 15.2461 4.3513C17.0066 4.12104 18.8045 4.2463 20.5362 4.71967Z" fill="#6F4EF3"/>
</svg>
